<svg xmlns="http://www.w3.org/2000/svg" xmlns:xlink="http://www.w3.org/1999/xlink" id="Layer_2" data-name="Layer 2" viewBox="0 0 176.86 41.19"><defs><style>      .cls-1 {        fill: #fff;      }      .cls-2 {        fill: url(#Spyglaz_neg-3);      }      .cls-3 {        fill: url(#Spyglaz_neg);      }      .cls-4 {        fill: url(#Spyglaz_neg-2);      }    </style><linearGradient id="Spyglaz_neg" x1="35.08" y1="6.72" x2="9.22" y2="31.56" gradientUnits="userSpaceOnUse"><stop offset="0" stop-color="#9ed0e1"/><stop offset=".02" stop-color="#8ccae0"/><stop offset=".05" stop-color="#7bc5df"/><stop offset=".09" stop-color="#6fc1df"/><stop offset=".14" stop-color="#68bfdf"/><stop offset=".27" stop-color="#66bfdf"/><stop offset=".37" stop-color="#48aeda"/><stop offset=".62" stop-color="#0087ce"/><stop offset=".64" stop-color="#0083ca"/><stop offset=".79" stop-color="#085da6"/><stop offset=".92" stop-color="#0d4590"/><stop offset="1" stop-color="#0f3d88"/></linearGradient><linearGradient id="Spyglaz_neg-2" data-name="Spyglaz_neg" x1="183.99" y1="7.84" x2="154.86" y2="32.11" xlink:href="#Spyglaz_neg"/><linearGradient id="Spyglaz_neg-3" data-name="Spyglaz_neg" x1="179.81" y1="2.72" x2="150.37" y2="27.25" xlink:href="#Spyglaz_neg"/></defs><g id="Layer_1-2" data-name="Layer 1"><g><path class="cls-3" d="m38.29,15.99c-.27.33-.63.5-1.07.5h-12.33c-.56,0-.93.19-.56.75.23.35,6.82,7.76,7.38,8.32.84.84.37,1.49-.37,1.49-.7,0-2.65.09-5.54.09-.35,0-.73,0-1.04-.34-1.93-2.09-9.95-10.88-10.62-11.72-.75-.93-1.33-1.88-.93-2.8.28-.65.84-1.41,3.55-1.49,2.3-.07,14.24-.03,19.08,0-3.51-5.25-9.49-8.71-16.27-8.71C8.76,2.08,0,10.83,0,21.63c0,1.28.12,2.53.36,3.74h15.65c2.8,0,2.06-1.49,2.06-1.49,0,0-.57-.79,0-.93.75-.19,5.42,4.3,5.61,6.73.12,1.59-2.43,1.49-3.36,1.49H2.48c3.34,5.98,9.74,10.03,17.08,10.03,10.8,0,19.56-8.76,19.56-19.56,0-1.96-.29-3.85-.83-5.64Z"/></g></g></svg>