<svg width="177" height="42" viewBox="0 0 177 42" fill="none" xmlns="http://www.w3.org/2000/svg">
<g clip-path="url(#clip0_2566_2210)">
<path d="M38.29 15.9901C38.02 16.3201 37.66 16.4901 37.22 16.4901H24.89C24.33 16.4901 23.96 16.6801 24.33 17.2401C24.56 17.5901 31.15 25.0001 31.71 25.5601C32.55 26.4001 32.08 27.0501 31.34 27.0501C30.64 27.0501 28.69 27.1401 25.8 27.1401C25.45 27.1401 25.07 27.1401 24.76 26.8001C22.83 24.7101 14.81 15.9201 14.14 15.0801C13.39 14.1501 12.81 13.2001 13.21 12.2801C13.49 11.6301 14.05 10.8701 16.76 10.7901C19.06 10.7201 31 10.7601 35.84 10.7901C32.33 5.54008 26.35 2.08008 19.57 2.08008C8.76 2.08008 0 10.8301 0 21.6301C0 22.9101 0.12 24.1601 0.36 25.3701H16.01C18.81 25.3701 18.07 23.8801 18.07 23.8801C18.07 23.8801 17.5 23.0901 18.07 22.9501C18.82 22.7601 23.49 27.2501 23.68 29.6801C23.8 31.2701 21.25 31.1701 20.32 31.1701H2.48C5.82 37.1501 12.22 41.2001 19.56 41.2001C30.36 41.2001 39.12 32.4401 39.12 21.6401C39.12 19.6801 38.83 17.7901 38.29 16.0001V15.9901Z" fill="url(#paint0_linear_2566_2210)"/>
<path d="M89.9899 10.8202C90.3699 11.0402 90.6199 11.3402 90.7399 11.7502C90.8599 12.1502 90.8499 12.5602 90.7199 12.9602L79.6999 36.4102C79.4799 36.7902 79.1699 37.0602 78.7499 37.2202C78.3299 37.3802 77.9399 37.3502 77.5599 37.1402H77.5999C77.1399 36.9202 76.8599 36.6202 76.7499 36.2102C76.6399 35.8102 76.6799 35.3402 76.8699 34.8002L80.6199 26.8902C79.4599 24.5502 78.3099 22.2302 77.1699 19.9502C76.0299 17.6602 74.8899 15.3502 73.7599 13.0102C73.5399 12.5502 73.4599 12.0402 73.5999 11.6502C73.7399 11.2902 73.9199 11.0302 74.4799 10.7902C74.8799 10.6202 75.2299 10.5502 75.6099 10.7302C75.9899 10.9102 76.2799 11.1902 76.4999 11.6002L82.3099 23.3502C83.2499 21.4102 84.1699 19.4602 85.0699 17.5002C85.9699 15.5402 86.8899 13.5702 87.8299 11.6102C88.0499 11.2102 88.3499 10.9202 88.7399 10.7602C89.1299 10.6002 89.5399 10.6302 89.9699 10.8402L89.9899 10.8202Z" fill="black"/>
<path d="M110.74 0.610107C111.12 0.610107 111.47 0.750107 111.79 1.03011C112.11 1.31011 112.27 1.70011 112.27 2.18011V28.9401C112.27 29.4201 112.11 29.8101 111.79 30.0901C111.47 30.3701 111.12 30.5101 110.74 30.5101C110.26 30.5101 109.86 30.3701 109.55 30.0901C109.24 29.8101 109.09 29.4201 109.09 28.9401V2.18011C109.09 1.70011 109.24 1.31011 109.55 1.03011C109.86 0.750107 110.26 0.610107 110.74 0.610107Z" fill="black"/>
<path d="M124.59 10.7002C125.21 10.7002 125.83 10.8202 126.45 11.0602C127.07 11.3002 127.61 11.6502 128.06 12.1102C129 13.1102 129.47 14.2802 129.47 15.6202V28.9802C129.47 29.4602 129.33 29.8502 129.05 30.1302C128.77 30.4102 128.4 30.5502 127.94 30.5502C127.16 30.5502 126.63 30.2402 126.37 29.6202C125.35 30.2402 124.19 30.5502 122.9 30.5502H121.04C120.12 30.5502 119.26 30.3802 118.46 30.0502C117.65 29.7102 116.95 29.2502 116.36 28.6602C115.77 28.0702 115.3 27.3702 114.95 26.5602C114.6 25.7502 114.43 24.8902 114.43 23.9802C114.43 23.0702 114.59 22.2202 114.91 21.4402C115.23 20.6602 115.7 19.9602 116.32 19.3402C116.94 18.7202 117.65 18.2402 118.46 17.9102C119.27 17.5702 120.13 17.4102 121.04 17.4102H125.16C125.54 17.4102 125.83 17.3002 126.05 17.0902H126.01C126.2 16.9002 126.29 16.5902 126.29 16.1602V15.6402C126.29 15.0702 126.13 14.6402 125.81 14.3502C125.51 14.0302 125.11 13.8702 124.6 13.8702H117.42C116.96 13.8702 116.58 13.7202 116.27 13.4302C115.96 13.1302 115.81 12.7602 115.81 12.3002C115.81 11.8202 115.96 11.4302 116.27 11.1502C116.58 10.8702 116.96 10.7302 117.42 10.7302H124.6L124.59 10.7002ZM125.28 26.4402C125.95 25.7902 126.29 24.9702 126.29 23.9802V20.4702C126.13 20.5202 125.95 20.5602 125.77 20.5702C125.58 20.5802 125.38 20.5902 125.16 20.5902H121.04C120.07 20.5902 119.26 20.9102 118.6 21.5602C117.94 22.2102 117.61 23.0102 117.61 23.9802C117.61 24.4602 117.7 24.9202 117.87 25.3302C118.04 25.7502 118.29 26.1102 118.6 26.4202C118.91 26.7302 119.27 26.9802 119.69 27.1702C120.11 27.3602 120.56 27.4502 121.04 27.4502H122.9C123.36 27.4502 123.79 27.3602 124.21 27.1902C124.63 27.0202 124.98 26.7702 125.28 26.4402Z" fill="black"/>
<path d="M73.1897 15.5402C72.8097 14.6002 72.2197 13.7502 71.4097 13.0002C70.6797 12.2502 69.8397 11.6702 68.8697 11.2802C67.8997 10.8902 66.8897 10.6902 65.8397 10.6902C65.7997 10.6902 65.7497 10.6902 65.7097 10.6902C61.4897 10.8202 58.0897 14.3902 57.9297 18.8502V35.6702C57.9297 36.1302 58.0797 36.5002 58.3897 36.7802C58.6997 37.0602 59.0797 37.2002 59.5397 37.2002C59.9997 37.2002 60.3697 37.0602 60.6697 36.7802C60.9697 36.5002 61.1097 36.1302 61.1097 35.6702V29.0502C61.7597 29.5302 62.4897 29.9002 63.3097 30.1602C64.1297 30.4202 64.9697 30.5402 65.8297 30.5402C66.9297 30.5402 67.9597 30.3402 68.9197 29.9302C69.8697 29.5302 70.7097 28.9702 71.4197 28.2502C72.1297 27.5302 72.6997 26.7002 73.1197 25.7502C73.5397 24.8002 73.7497 23.7702 73.7497 22.6602V18.5402C73.7497 17.4602 73.5597 16.4502 73.1797 15.5102L73.1897 15.5402ZM70.6097 22.6802C70.6097 23.3302 70.4897 23.9402 70.2497 24.5202C70.0097 25.1002 69.6697 25.6002 69.2397 26.0302C68.8097 26.4602 68.2997 26.8002 67.7297 27.0602C67.1497 27.3202 66.5297 27.4402 65.8497 27.4402C65.1697 27.4402 64.5897 27.3102 64.0097 27.0602C63.4297 26.8002 62.9297 26.4602 62.5197 26.0302C62.0997 25.6002 61.7697 25.1002 61.5097 24.5202C61.2497 23.9402 61.1297 23.3302 61.1297 22.6802V18.5602C61.1297 17.3002 61.5897 16.1802 62.4997 15.2102C63.4097 14.3002 64.5297 13.8402 65.8497 13.8402C67.1697 13.8402 68.3397 14.3002 69.2797 15.2102H69.2397C69.6697 15.6702 70.0097 16.1902 70.2497 16.7802C70.4897 17.3702 70.6097 17.9602 70.6097 18.5602V22.6802Z" fill="black"/>
<path d="M103.18 12.2402C102.52 11.7702 101.8 11.4002 101.01 11.1202C100.2 10.8402 99.3598 10.7002 98.4698 10.7002C97.4198 10.7002 96.4098 10.9002 95.4398 11.2902C93.0298 12.2502 91.7698 14.0202 91.1798 15.5702C90.8098 16.5302 90.5898 17.5302 90.5898 18.5802V22.7002C90.5898 23.7502 90.7998 24.7602 91.1798 25.7502C91.8798 27.5902 93.6198 29.3302 95.4398 29.9702C96.4098 30.3702 97.4198 30.5802 98.4698 30.5802C100.35 30.5802 101.94 30.0702 103.23 29.0502V29.4102C103.23 30.0602 103.1 30.6702 102.85 31.2502C102.59 31.8302 102.24 32.3302 101.8 32.7602C101.36 33.1902 100.85 33.5302 100.29 33.7702C99.7298 34.0102 99.1198 34.1302 98.4698 34.1302H93.6698C93.2698 34.1302 92.8998 34.2702 92.5798 34.5502C92.2598 34.8302 92.0998 35.2202 92.0998 35.7002C92.0998 36.1602 92.2598 36.5302 92.5798 36.8102C92.8998 37.0902 93.2698 37.2302 93.6698 37.2302H98.4698C99.5498 37.2302 100.57 37.0302 101.54 36.6202C102.51 36.2202 103.36 35.6602 104.08 34.9402C104.81 34.2302 105.38 33.4002 105.8 32.4602C106.22 31.5202 106.43 30.5002 106.43 29.3902V18.7002C106.34 15.9702 105.09 13.6702 103.19 12.2502L103.18 12.2402ZM103.23 22.6902C103.23 23.3402 103.1 23.9502 102.85 24.5302C102.59 25.1102 102.24 25.6102 101.8 26.0402C101.36 26.4702 100.85 26.8102 100.29 27.0702C99.7298 27.3302 99.1198 27.4502 98.4698 27.4502C97.2298 27.4502 96.0998 26.9802 95.0798 26.0402C94.1898 25.0702 93.7498 23.9502 93.7498 22.6902V18.5702C93.7498 17.9502 93.8698 17.3602 94.0698 16.7702C94.7098 14.9002 96.4398 13.8602 98.4698 13.8402C99.1198 13.8402 99.7198 13.9702 100.29 14.2202C100.86 14.4802 101.36 14.8102 101.8 15.2302C102.24 15.6502 102.59 16.1502 102.85 16.7202C103.11 17.3002 103.23 17.9102 103.23 18.5602V22.6802V22.6902Z" fill="black"/>
<path d="M140.85 13.7902C138.52 13.7902 136.4 13.7902 134.28 13.7902C133.68 13.7902 133.07 13.8102 132.47 13.7602C131.69 13.7002 131.12 13.1102 131.06 12.3802C130.99 11.5702 131.45 10.9402 132.27 10.7402C132.52 10.6802 132.78 10.6702 133.04 10.6702C136.23 10.6702 139.43 10.6702 142.62 10.6702C144.05 10.6702 144.46 11.1602 144.53 12.5802C144.59 13.6502 144.27 14.4802 143.64 15.3302C140.85 19.0602 138.12 22.8402 135.38 26.6002C135.22 26.8202 135.07 27.0602 134.85 27.3802C135.24 27.4002 135.51 27.4202 135.79 27.4202C138.12 27.4202 140.45 27.4202 142.78 27.4202C144.03 27.4202 144.53 27.9002 144.52 29.0202C144.51 30.0802 144.03 30.5002 142.77 30.5002C139.49 30.5002 136.21 30.5002 132.93 30.5002C131.6 30.5002 131.11 29.9402 131.04 28.6002C130.99 27.6502 131.28 26.8902 131.84 26.1402C134.66 22.3202 137.45 18.4802 140.25 14.6502C140.42 14.4202 140.57 14.1802 140.86 13.7702L140.85 13.7902Z" fill="black"/>
<path d="M48.2996 30.7101C47.0096 30.7101 45.7296 30.7201 44.4396 30.7101C43.3796 30.7001 42.7996 30.1701 42.7696 29.2201C42.7396 28.2301 43.3296 27.6101 44.4096 27.6001C46.7496 27.5801 49.0796 27.5901 51.4196 27.5901C52.0796 27.5901 52.7796 27.5501 53.0396 26.8401C53.3096 26.1101 52.9996 25.5001 52.4096 24.9801C49.9196 22.8201 47.4296 20.6501 44.9596 18.4701C43.4496 17.1301 42.9596 15.2901 43.5996 13.5701C44.3296 11.6201 45.7696 10.6001 47.8696 10.5601C48.4796 10.5501 49.0996 10.5601 49.7096 10.5601C51.2296 10.5601 52.7496 10.5501 54.2696 10.5601C55.3596 10.5701 56.0196 11.1701 56.0296 12.0901C56.0296 13.0801 55.3896 13.7001 54.2596 13.7101C52.2396 13.7201 50.2296 13.7201 48.2096 13.7101C47.5296 13.7101 46.8896 13.7901 46.6496 14.5501C46.4296 15.2601 46.6696 15.8001 47.2596 16.3101C49.7896 18.4801 52.2796 20.6901 54.7696 22.8901C56.2196 24.1701 56.7196 26.0301 56.0996 27.7301C55.4396 29.5501 53.8696 30.6801 51.8796 30.7201C50.6796 30.7401 49.4796 30.7201 48.2896 30.7201L48.2996 30.7101Z" fill="black"/>
<path d="M173.23 15.33C173.23 11.14 173.23 6.95 173.23 2.76C173.23 2.47 173.22 2.18 173.25 1.9C173.35 0.899996 174.18 0.0999959 175.06 0.119996C175.9 0.139996 176.71 0.929996 176.83 1.86C176.86 2.11 176.86 2.37 176.86 2.63C176.86 11.11 176.86 19.58 176.86 28.06C176.86 28.35 176.86 28.64 176.81 28.92C176.66 29.81 175.86 30.49 175.01 30.48C174.14 30.47 173.4 29.8 173.27 28.87C173.22 28.52 173.24 28.17 173.24 27.82C173.24 23.66 173.24 19.5 173.24 15.35L173.23 15.33Z" fill="url(#paint1_linear_2566_2210)"/>
<path d="M161.4 1.49988C161.04 0.579881 160.43 -0.010119 159.51 -0.000118984C158.63 0.00988102 158.03 0.639881 157.71 1.49988C157.19 2.90988 156.64 4.29988 156.09 5.69988C153.54 12.1399 148.24 25.5099 148.24 25.5099C147.99 26.1499 147.73 26.7899 147.48 27.4399C147.38 27.7099 147.27 27.9799 147.21 28.2499C147.02 29.1299 147.51 30.0499 148.3 30.3499C149.11 30.6599 150.04 30.3099 150.5 29.4899C150.67 29.1899 150.79 28.8499 150.92 28.5299C151.14 27.9599 151.37 27.3999 151.59 26.8299C151.59 26.8299 152.85 23.6399 153.12 22.9499C153.37 22.2899 153.67 21.9599 154.49 21.9699C157.88 22.0299 161.27 22.0199 164.66 21.9699C165.38 21.9699 165.72 22.1799 165.98 22.8699C166.24 23.5899 167.92 27.9999 168.14 28.5499C168.27 28.8699 168.38 29.1999 168.55 29.4899C169 30.2899 169.91 30.6299 170.71 30.3199C171.48 30.0299 171.96 29.1199 171.78 28.2599C171.72 27.9899 171.62 27.7199 171.52 27.4599C171.27 26.8299 164.47 9.31988 161.43 1.46988L161.4 1.49988ZM159.54 6.77988C161.12 10.7599 162.6 14.4699 164.13 18.2899H154.98C156.48 14.5099 157.96 10.7799 159.55 6.77988H159.54Z" fill="url(#paint2_linear_2566_2210)"/>
</g>
<defs>
<linearGradient id="paint0_linear_2566_2210" x1="35.08" y1="6.72008" x2="9.22" y2="31.5601" gradientUnits="userSpaceOnUse">
<stop stop-color="#9ED0E1"/>
<stop offset="0.02" stop-color="#8CCAE0"/>
<stop offset="0.05" stop-color="#7BC5DF"/>
<stop offset="0.09" stop-color="#6FC1DF"/>
<stop offset="0.14" stop-color="#68BFDF"/>
<stop offset="0.27" stop-color="#66BFDF"/>
<stop offset="0.37" stop-color="#48AEDA"/>
<stop offset="0.62" stop-color="#0087CE"/>
<stop offset="0.64" stop-color="#0083CA"/>
<stop offset="0.79" stop-color="#085DA6"/>
<stop offset="0.92" stop-color="#0D4590"/>
<stop offset="1" stop-color="#0F3D88"/>
</linearGradient>
<linearGradient id="paint1_linear_2566_2210" x1="183.99" y1="7.84" x2="154.86" y2="32.11" gradientUnits="userSpaceOnUse">
<stop stop-color="#9ED0E1"/>
<stop offset="0.02" stop-color="#8CCAE0"/>
<stop offset="0.05" stop-color="#7BC5DF"/>
<stop offset="0.09" stop-color="#6FC1DF"/>
<stop offset="0.14" stop-color="#68BFDF"/>
<stop offset="0.27" stop-color="#66BFDF"/>
<stop offset="0.37" stop-color="#48AEDA"/>
<stop offset="0.62" stop-color="#0087CE"/>
<stop offset="0.64" stop-color="#0083CA"/>
<stop offset="0.79" stop-color="#085DA6"/>
<stop offset="0.92" stop-color="#0D4590"/>
<stop offset="1" stop-color="#0F3D88"/>
</linearGradient>
<linearGradient id="paint2_linear_2566_2210" x1="179.81" y1="2.71988" x2="150.37" y2="27.2499" gradientUnits="userSpaceOnUse">
<stop stop-color="#9ED0E1"/>
<stop offset="0.02" stop-color="#8CCAE0"/>
<stop offset="0.05" stop-color="#7BC5DF"/>
<stop offset="0.09" stop-color="#6FC1DF"/>
<stop offset="0.14" stop-color="#68BFDF"/>
<stop offset="0.27" stop-color="#66BFDF"/>
<stop offset="0.37" stop-color="#48AEDA"/>
<stop offset="0.62" stop-color="#0087CE"/>
<stop offset="0.64" stop-color="#0083CA"/>
<stop offset="0.79" stop-color="#085DA6"/>
<stop offset="0.92" stop-color="#0D4590"/>
<stop offset="1" stop-color="#0F3D88"/>
</linearGradient>
<linearGradient id="paint2_linear_2566_2210" x1="179.81" y1="2.71988" x2="150.37" y2="27.2499" gradientUnits="userSpaceOnUse">
<stop stop-color="#9ED0E1"/>
<stop offset="0.02" stop-color="#8CCAE0"/>
<stop offset="0.05" stop-color="#7BC5DF"/>
<stop offset="0.09" stop-color="#6FC1DF"/>
<stop offset="0.14" stop-color="#68BFDF"/>
<stop offset="0.27" stop-color="#66BFDF"/>
<stop offset="0.37" stop-color="#48AEDA"/>
<stop offset="0.62" stop-color="#0087CE"/>
<stop offset="0.64" stop-color="#0083CA"/>
<stop offset="0.79" stop-color="#085DA6"/>
<stop offset="0.92" stop-color="#0D4590"/>
<stop offset="1" stop-color="#0F3D88"/>
</linearGradient>
<clipPath id="clip0_2566_2210">
<rect width="176.86" height="41.19" fill="white"/>
</clipPath>
</defs>
</svg>