<svg xmlns="http://www.w3.org/2000/svg" xmlns:xlink="http://www.w3.org/1999/xlink" id="Layer_2" data-name="Layer 2" viewBox="0 0 176.86 41.19"><defs><style>      .cls-1 {        fill: #fff;      }      .cls-2 {        fill: url(#Spyglaz_neg-3);      }      .cls-3 {        fill: url(#Spyglaz_neg);      }      .cls-4 {        fill: url(#Spyglaz_neg-2);      }    </style><linearGradient id="Spyglaz_neg" x1="35.08" y1="6.72" x2="9.22" y2="31.56" gradientUnits="userSpaceOnUse"><stop offset="0" stop-color="#9ed0e1"/><stop offset=".02" stop-color="#8ccae0"/><stop offset=".05" stop-color="#7bc5df"/><stop offset=".09" stop-color="#6fc1df"/><stop offset=".14" stop-color="#68bfdf"/><stop offset=".27" stop-color="#66bfdf"/><stop offset=".37" stop-color="#48aeda"/><stop offset=".62" stop-color="#0087ce"/><stop offset=".64" stop-color="#0083ca"/><stop offset=".79" stop-color="#085da6"/><stop offset=".92" stop-color="#0d4590"/><stop offset="1" stop-color="#0f3d88"/></linearGradient><linearGradient id="Spyglaz_neg-2" data-name="Spyglaz_neg" x1="183.99" y1="7.84" x2="154.86" y2="32.11" xlink:href="#Spyglaz_neg"/><linearGradient id="Spyglaz_neg-3" data-name="Spyglaz_neg" x1="179.81" y1="2.72" x2="150.37" y2="27.25" xlink:href="#Spyglaz_neg"/></defs><g id="Layer_1-2" data-name="Layer 1"><g><path class="cls-3" d="m38.29,15.99c-.27.33-.63.5-1.07.5h-12.33c-.56,0-.93.19-.56.75.23.35,6.82,7.76,7.38,8.32.84.84.37,1.49-.37,1.49-.7,0-2.65.09-5.54.09-.35,0-.73,0-1.04-.34-1.93-2.09-9.95-10.88-10.62-11.72-.75-.93-1.33-1.88-.93-2.8.28-.65.84-1.41,3.55-1.49,2.3-.07,14.24-.03,19.08,0-3.51-5.25-9.49-8.71-16.27-8.71C8.76,2.08,0,10.83,0,21.63c0,1.28.12,2.53.36,3.74h15.65c2.8,0,2.06-1.49,2.06-1.49,0,0-.57-.79,0-.93.75-.19,5.42,4.3,5.61,6.73.12,1.59-2.43,1.49-3.36,1.49H2.48c3.34,5.98,9.74,10.03,17.08,10.03,10.8,0,19.56-8.76,19.56-19.56,0-1.96-.29-3.85-.83-5.64Z"/><g><path class="cls-1" d="m89.99,10.82c.38.22.63.52.75.93.12.4.11.81-.02,1.21l-11.02,23.45c-.22.38-.53.65-.95.81-.42.16-.81.13-1.19-.08h.04c-.46-.22-.74-.52-.85-.93-.11-.4-.07-.87.12-1.41l3.75-7.91c-1.16-2.34-2.31-4.66-3.45-6.94-1.14-2.29-2.28-4.6-3.41-6.94-.22-.46-.3-.97-.16-1.36.14-.36.32-.62.88-.86.4-.17.75-.24,1.13-.06.38.18.67.46.89.87l5.81,11.75c.94-1.94,1.86-3.89,2.76-5.85.9-1.96,1.82-3.93,2.76-5.89.22-.4.52-.69.91-.85.39-.16.8-.13,1.23.08Z"/><path class="cls-1" d="m110.74.61c.38,0,.73.14,1.05.42.32.28.48.67.48,1.15v26.76c0,.48-.16.87-.48,1.15-.32.28-.67.42-1.05.42-.48,0-.88-.14-1.19-.42-.31-.28-.46-.67-.46-1.15V2.18c0-.48.15-.87.46-1.15.31-.28.71-.42,1.19-.42Z"/><path class="cls-1" d="m124.59,10.7c.62,0,1.24.12,1.86.36.62.24,1.16.59,1.61,1.05.94,1,1.41,2.17,1.41,3.51v13.36c0,.48-.14.87-.42,1.15-.28.28-.65.42-1.11.42-.78,0-1.31-.31-1.57-.93-1.02.62-2.18.93-3.47.93h-1.86c-.92,0-1.78-.17-2.58-.5-.81-.34-1.51-.8-2.1-1.39-.59-.59-1.06-1.29-1.41-2.1-.35-.81-.52-1.67-.52-2.58s.16-1.76.48-2.54c.32-.78.79-1.48,1.41-2.1.62-.62,1.33-1.1,2.14-1.43.81-.34,1.67-.5,2.58-.5h4.12c.38,0,.67-.11.89-.32h-.04c.19-.19.28-.5.28-.93v-.52c0-.57-.16-1-.48-1.29-.3-.32-.7-.48-1.21-.48h-7.18c-.46,0-.84-.15-1.15-.44-.31-.3-.46-.67-.46-1.13,0-.48.15-.87.46-1.15.31-.28.69-.42,1.15-.42h7.18Zm.69,15.74c.67-.65,1.01-1.47,1.01-2.46v-3.51c-.16.05-.34.09-.52.1-.19.01-.39.02-.61.02h-4.12c-.97,0-1.78.32-2.44.97-.66.65-.99,1.45-.99,2.42,0,.48.09.94.26,1.35.17.42.42.78.73,1.09.31.31.67.56,1.09.75.42.19.87.28,1.35.28h1.86c.46,0,.89-.09,1.31-.26.42-.17.77-.42,1.07-.75Z"/><path class="cls-1" d="m73.19,15.54c-.38-.94-.97-1.79-1.78-2.54-.73-.75-1.57-1.33-2.54-1.72-.97-.39-1.98-.59-3.03-.59-.04,0-.09,0-.13,0-4.22.13-7.62,3.7-7.78,8.16v16.82c0,.46.15.83.46,1.11.31.28.69.42,1.15.42s.83-.14,1.13-.42c.3-.28.44-.65.44-1.11v-6.62c.65.48,1.38.85,2.2,1.11.82.26,1.66.38,2.52.38,1.1,0,2.13-.2,3.09-.61.95-.4,1.79-.96,2.5-1.68s1.28-1.55,1.7-2.5c.42-.95.63-1.98.63-3.09v-4.12c0-1.08-.19-2.09-.57-3.03Zm-2.58,7.14c0,.65-.12,1.26-.36,1.84-.24.58-.58,1.08-1.01,1.51s-.94.77-1.51,1.03c-.58.26-1.2.38-1.88.38s-1.26-.13-1.84-.38c-.58-.26-1.08-.6-1.49-1.03-.42-.43-.75-.93-1.01-1.51-.26-.58-.38-1.19-.38-1.84v-4.12c0-1.26.46-2.38,1.37-3.35.91-.91,2.03-1.37,3.35-1.37s2.49.46,3.43,1.37h-.04c.43.46.77.98,1.01,1.57.24.59.36,1.18.36,1.78v4.12Z"/><path class="cls-1" d="m103.18,12.24c-.66-.47-1.38-.84-2.17-1.12-.81-.28-1.65-.42-2.54-.42-1.05,0-2.06.2-3.03.59-2.41.96-3.67,2.73-4.26,4.28-.37.96-.59,1.96-.59,3.01v4.12c0,1.05.21,2.06.59,3.05.7,1.84,2.44,3.58,4.26,4.22.97.4,1.98.61,3.03.61,1.88,0,3.47-.51,4.76-1.53v.36c0,.65-.13,1.26-.38,1.84-.26.58-.61,1.08-1.05,1.51-.44.43-.95.77-1.51,1.01-.56.24-1.17.36-1.82.36h-4.8c-.4,0-.77.14-1.09.42-.32.28-.48.67-.48,1.15,0,.46.16.83.48,1.11.32.28.69.42,1.09.42h4.8c1.08,0,2.1-.2,3.07-.61.97-.4,1.82-.96,2.54-1.68.73-.71,1.3-1.54,1.72-2.48.42-.94.63-1.96.63-3.07v-10.69c-.09-2.73-1.34-5.03-3.24-6.45Zm.05,10.45c0,.65-.13,1.26-.38,1.84-.26.58-.61,1.08-1.05,1.51-.44.43-.95.77-1.51,1.03-.56.26-1.17.38-1.82.38-1.24,0-2.37-.47-3.39-1.41-.89-.97-1.33-2.09-1.33-3.35v-4.12c0-.62.12-1.21.32-1.8.64-1.87,2.37-2.91,4.4-2.93.65,0,1.25.13,1.82.38.57.26,1.07.59,1.51,1.01.44.42.79.92,1.05,1.49.26.58.38,1.19.38,1.84v4.12Z"/><path class="cls-1" d="m140.85,13.79c-2.33,0-4.45,0-6.57,0-.6,0-1.21.02-1.81-.03-.78-.06-1.35-.65-1.41-1.38-.07-.81.39-1.44,1.21-1.64.25-.06.51-.07.77-.07,3.19,0,6.39,0,9.58,0,1.43,0,1.84.49,1.91,1.91.06,1.07-.26,1.9-.89,2.75-2.79,3.73-5.52,7.51-8.26,11.27-.16.22-.31.46-.53.78.39.02.66.04.94.04,2.33,0,4.66,0,6.99,0,1.25,0,1.75.48,1.74,1.6-.01,1.06-.49,1.48-1.75,1.48-3.28,0-6.56,0-9.84,0-1.33,0-1.82-.56-1.89-1.9-.05-.95.24-1.71.8-2.46,2.82-3.82,5.61-7.66,8.41-11.49.17-.23.32-.47.61-.88Z"/><path class="cls-1" d="m48.3,30.71c-1.29,0-2.57.01-3.86,0-1.06-.01-1.64-.54-1.67-1.49-.03-.99.56-1.61,1.64-1.62,2.34-.02,4.67-.01,7.01-.01.66,0,1.36-.04,1.62-.75.27-.73-.04-1.34-.63-1.86-2.49-2.16-4.98-4.33-7.45-6.51-1.51-1.34-2-3.18-1.36-4.9.73-1.95,2.17-2.97,4.27-3.01.61-.01,1.23,0,1.84,0,1.52,0,3.04-.01,4.56,0,1.09.01,1.75.61,1.76,1.53,0,.99-.64,1.61-1.77,1.62-2.02.01-4.03.01-6.05,0-.68,0-1.32.08-1.56.84-.22.71.02,1.25.61,1.76,2.53,2.17,5.02,4.38,7.51,6.58,1.45,1.28,1.95,3.14,1.33,4.84-.66,1.82-2.23,2.95-4.22,2.99-1.2.02-2.4,0-3.59,0h0Z"/></g><g><path class="cls-4" d="m173.23,15.33c0-4.19,0-8.38,0-12.57,0-.29-.01-.58.02-.86.1-1,.93-1.8,1.81-1.78.84.02,1.65.81,1.77,1.74.03.25.03.51.03.77,0,8.48,0,16.95,0,25.43,0,.29,0,.58-.05.86-.15.89-.95,1.57-1.8,1.56-.87-.01-1.61-.68-1.74-1.61-.05-.35-.03-.7-.03-1.05,0-4.16,0-8.32,0-12.47Z"/><path class="cls-2" d="m161.4,1.5c-.36-.92-.97-1.51-1.89-1.5-.88.01-1.48.64-1.8,1.5-.52,1.41-1.07,2.8-1.62,4.2-2.55,6.44-7.85,19.81-7.85,19.81-.25.64-.51,1.28-.76,1.93-.1.27-.21.54-.27.81-.19.88.3,1.8,1.09,2.1.81.31,1.74-.04,2.2-.86.17-.3.29-.64.42-.96.22-.57.45-1.13.67-1.7,0,0,1.26-3.19,1.53-3.88.25-.66.55-.99,1.37-.98,3.39.06,6.78.05,10.17,0,.72,0,1.06.21,1.32.9.26.72,1.94,5.13,2.16,5.68.13.32.24.65.41.94.45.8,1.36,1.14,2.16.83.77-.29,1.25-1.2,1.07-2.06-.06-.27-.16-.54-.26-.8-.25-.63-7.05-18.14-10.09-25.99Zm-1.86,5.28c1.58,3.98,3.06,7.69,4.59,11.51h-9.15c1.5-3.78,2.98-7.51,4.57-11.51Z"/></g></g></g></svg>